# xmcd CD database file
#
# Track frame offsets:
#	150
#	30788
#	48213
#	77423
#	99483
#	120853
#	149338
#	175650
#	199768
#	226978
#	251125
#	267383
#
# Disc length: 3880 seconds
#
# Revision: 6
# Processed by: cddbd v1.5.2PL0 Copyright (c) Steve Scherf et al.
# Submitted via: CDex 1.51
#
DISCID=8e0f260c
DTITLE=Klaus Doldinger - Doldinger In New York
DYEAR=1994
DGENRE=Jazz
TTITLE0=Yellow Cab
TTITLE1=Cross Talk
TTITLE2=I Got It Bad
TTITLE3=Street Of Dreams
TTITLE4=Nighttime In The City
TTITLE5=Skylark
TTITLE6=Alone Toghether
TTITLE7=Well You Needn't
TTITLE8=Missing You
TTITLE9=Speak Low
TTITLE10=All Blues
TTITLE11=Coco-motion
EXTD=YEAR: 1994
EXTT0=
EXTT1=
EXTT2=
EXTT3=
EXTT4=
EXTT5=
EXTT6=
EXTT7=
EXTT8=
EXTT9=
EXTT10=
EXTT11=
PLAYORDER=
